HIERARCHY
ROOT Hips
{
	OFFSET 0.00000 0.00000 0.00000
	CHANNELS 6 Xposition Yposition Zposition Zrotation Yrotation Xrotation 
	JOINT LHipJoint
	{
		OFFSET 0 0 0
		CHANNELS 3 Zrotation Yrotation Xrotation
		JOINT LeftUpLeg
		{
			OFFSET 1.38615 -1.80049 0.80104
			CHANNELS 3 Zrotation Yrotation Xrotation
			JOINT LeftLeg
			{
				OFFSET 2.50172 -6.87341 0.00000
				CHANNELS 3 Zrotation Yrotation Xrotation
				JOINT LeftFoot
				{
					OFFSET 2.67523 -7.35014 0.00000
					CHANNELS 3 Zrotation Yrotation Xrotation
					JOINT LeftToeBase
					{
						OFFSET 0.17446 -0.47932 2.13155
						CHANNELS 3 Zrotation Yrotation Xrotation
						End Site
						{
							OFFSET 0.00000 -0.00000 1.10023
						}
					}
				}
			}
		}
	}
	JOINT RHipJoint
	{
		OFFSET 0 0 0
		CHANNELS 3 Zrotation Yrotation Xrotation
		JOINT RightUpLeg
		{
			OFFSET -1.18047 -1.80049 0.80104
			CHANNELS 3 Zrotation Yrotation Xrotation
			JOINT RightLeg
			{
				OFFSET -2.59789 -7.13765 0.00000
				CHANNELS 3 Zrotation Yrotation Xrotation
				JOINT RightFoot
				{
					OFFSET -2.62125 -7.20183 0.00000
					CHANNELS 3 Zrotation Yrotation Xrotation
					JOINT RightToeBase
					{
						OFFSET -0.31287 -0.85960 2.07814
						CHANNELS 3 Zrotation Yrotation Xrotation
						End Site
						{
							OFFSET -0.00000 -0.00000 1.11766
						}
					}
				}
			}
		}
	}
	JOINT LowerBack
	{
		OFFSET 0 0 0
		CHANNELS 3 Zrotation Yrotation Xrotation
		JOINT Spine
		{
			OFFSET -0.01587 2.16157 -0.12309
			CHANNELS 3 Zrotation Yrotation Xrotation
			JOINT Spine1
			{
				OFFSET 0.04727 2.16674 -0.03569
				CHANNELS 3 Zrotation Yrotation Xrotation
				JOINT Neck
				{
					OFFSET 0 0 0
					CHANNELS 3 Zrotation Yrotation Xrotation
					JOINT Neck1
					{
						OFFSET -0.08586 1.60335 0.32783
						CHANNELS 3 Zrotation Yrotation Xrotation
						JOINT Head
						{
							OFFSET 0.07583 1.65857 -0.31618
							CHANNELS 3 Zrotation Yrotation Xrotation
							End Site
							{
								OFFSET 0.03386 1.69434 -0.14584
							}
						}
					}
				}
				JOINT LeftShoulder
				{
					OFFSET 0 0 0
					CHANNELS 3 Zrotation Yrotation Xrotation
					JOINT LeftArm
					{
						OFFSET 3.17393 1.01901 -0.52897
						CHANNELS 3 Zrotation Yrotation Xrotation
						JOINT LeftForeArm
						{
							OFFSET 5.25287 -0.00000 -0.00000
							CHANNELS 3 Zrotation Yrotation Xrotation
							JOINT LeftHand
							{
								OFFSET 3.51014 -0.00000 0.00000
								CHANNELS 3 Zrotation Yrotation Xrotation
								JOINT LeftFingerBase
								{
									OFFSET 0 0 0
									CHANNELS 3 Zrotation Yrotation Xrotation
									JOINT LeftHandIndex1
									{
										OFFSET 0.70618 -0.00000 -0.00000
										CHANNELS 3 Zrotation Yrotation Xrotation
										End Site
										{
											OFFSET 0.56934 -0.00000 -0.00000
										}
									}
								}
								JOINT LThumb
								{
									OFFSET 0 0 0
									CHANNELS 3 Zrotation Yrotation Xrotation
									End Site
									{
										OFFSET 0.57803 -0.00000 0.57803
									}
								}
							}
						}
					}
				}
				JOINT RightShoulder
				{
					OFFSET 0 0 0
					CHANNELS 3 Zrotation Yrotation Xrotation
					JOINT RightArm
					{
						OFFSET -2.99471 1.26495 -0.61125
						CHANNELS 3 Zrotation Yrotation Xrotation
						JOINT RightForeArm
						{
							OFFSET -5.28721 -0.00000 -0.00000
							CHANNELS 3 Zrotation Yrotation Xrotation
							JOINT RightHand
							{
								OFFSET -3.50544 -0.00000 0.00000
								CHANNELS 3 Zrotation Yrotation Xrotation
								JOINT RightFingerBase
								{
									OFFSET 0 0 0
									CHANNELS 3 Zrotation Yrotation Xrotation
									JOINT RightHandIndex1
									{
										OFFSET -0.88500 -0.00000 -0.00000
										CHANNELS 3 Zrotation Yrotation Xrotation
										End Site
										{
											OFFSET -0.71351 -0.00000 -0.00000
										}
									}
								}
								JOINT RThumb
								{
									OFFSET 0 0 0
									CHANNELS 3 Zrotation Yrotation Xrotation
									End Site
									{
										OFFSET -0.72440 -0.00000 0.72440
									}
								}
							}
						}
					}
				}
			}
		}
	}
}
MOTION
Frames: 12
Frame Time: 0.166667
0.00 0.00 0.00 0 0 0 0 0 0 -21 0 0 0 0 0 0 0 0 0 0 0 0 0 0 21 0 0 0 0 0 0 0 0 0 0 0 0 0 0 0 0 0 0 0 0 0 0 -16 0 0 21 0 0 11 0 0 0 -8 0 0 0 0 0 0 0 0 0 0 0 0 0 0 0 0 0 0 0 0 8 0 0 0 0 0 0 0 0 0 0 0 0 0 0 0 0 0
0.00 0.00 0.00 5.5755 -73.1289 0.6594 0.0000 0.0000 0.0000 -16.7834 -5.7807 -18.3243 4.7206 13.0620 39.6011 1.5858 -6.4719 -22.5862 0.0212 -0.9401 -2.5839 0.0000 0.0000 0.0000 16.8067 3.8967 -19.4831 -6.3413 -14.7511 46.3366 -3.0975 2.6507 -32.6929 -0.0965 2.0034 -5.5151 -2.6168 0.7533 0.2485 1.9652 0.9957 -0.5028 3.4780 0.5161 -0.7351 -2.8868 6.8188 -18.7134 0.8745 10.0202 19.8302 2.0649 4.5286 9.1146 0.0000 0.0000 0.0000 -91.3605 0.8165 29.2770 16.0390 -25.5734 -3.6628 -0.0000 -0.0000 9.5705 0.9516 41.5956 0.6318 -7.1250 0.0000 -0.0000 -46.5151 65.7661 -25.6954 0.0000 0.0000 0.0000 88.9121 -0.4257 14.2989 -16.9448 26.7850 -4.0624 0.0000 -0.0000 -5.7777 -14.9263 10.0926 -2.6746 7.1250 -0.0000 -0.0000 8.5795 -19.6018 5.2629
0.00 0.00 0.00 3.8903 -72.2612 0.6312 0.0000 0.0000 0.0000 -15.0104 -6.9370 -26.7935 9.0230 16.8225 56.1696 2.0842 -7.5936 -25.9529 0.2932 -3.4820 -9.6236 0.0000 0.0000 0.0000 16.4243 5.0760 -26.9376 -10.8459 -17.8589 62.2802 -3.6105 1.8193 -35.5993 -0.5482 4.7434 -13.1780 -1.7644 0.5441 7.1159 2.1404 0.6397 0.6294 3.1460 0.3483 -3.3850 -2.6440 6.7535 -21.6372 -0.2273 10.0625 15.5997 1.6532 4.5550 8.2524 0.0000 -0.0000 0.0000 -91.4291 0.5655 34.2355 18.8376 -29.2164 -4.9513 -0.0000 -0.0000 3.1990 3.9729 39.7111 2.5407 -7.1250 0.0000 -0.0000 -40.6814 65.2957 -21.5384 0.0000 -0.0000 0.0000 89.5892 -0.3787 17.3195 -20.6794 31.4522 -5.8818 0.0000 -0.0000 -13.2419 -14.3204 9.3746 -2.3811 7.1250 -0.0000 -0.0000 9.0286 -20.3656 5.3886
0.00 0.00 0.00 2.0404 -75.2965 2.5929 0.0000 0.0000 0.0000 -12.6185 -3.1369 -31.1846 10.8699 17.8708 62.3584 2.9707 -11.0965 -31.1027 0.6872 -5.2998 -14.7657 0.0000 0.0000 0.0000 17.0364 8.3322 -29.8693 -12.6923 -18.6682 68.1670 -4.4093 1.5361 -39.5460 -0.5373 4.6965 -13.0450 -2.8173 0.4989 8.4129 2.5335 0.4532 1.7571 4.1717 0.2346 -2.9383 -3.9644 7.0161 -24.5401 1.7577 10.3489 10.7898 2.4768 4.9452 6.9097 0.0000 -0.0000 0.0000 -84.1063 -6.8479 8.3471 13.7753 -22.4126 -2.7419 -0.0000 -0.0000 3.7740 0.7733 33.9528 0.4319 -7.1250 0.0000 -0.0000 -36.6653 60.0005 -14.5799 0.0000 -0.0000 0.0000 87.0678 3.9071 -12.5366 -14.9623 24.0935 -3.2105 0.0000 -0.0000 -13.1943 -9.5770 11.3930 -1.9089 7.1250 -0.0000 -0.0000 12.2860 -18.5734 7.9165
0.00 0.00 0.00 3.5493 -75.9182 2.6475 0.0000 0.0000 0.0000 -14.0651 -2.1652 -25.5447 6.8459 15.2008 48.2892 0.9552 -10.2087 -17.8011 1.5456 -7.8475 -22.2517 0.0000 0.0000 0.0000 16.8867 4.4411 -26.1389 -8.7150 -16.6208 55.0992 -2.0202 3.4375 -26.0286 -0.6628 5.2066 -14.4989 -3.4984 -0.1494 5.5339 2.7102 -0.3609 0.5802 4.8057 -0.1420 -2.4673 -4.3780 7.3955 -26.4123 2.7677 10.9647 13.5081 3.1269 5.2451 8.0070 -0.0000 0.0000 0.0000 -74.8421 -5.2242 -11.0248 13.0222 -21.3198 -2.4614 -0.0000 -0.0000 7.7545 4.7132 38.6802 2.9497 -7.1250 0.0000 -0.0000 -38.4708 64.7259 -19.7065 -0.0000 0.0000 0.0000 78.5017 2.5804 -30.4373 -12.8630 21.0862 -2.4038 0.0000 -0.0000 -4.5750 -11.1755 9.7327 -1.9129 7.1250 -0.0000 -0.0000 11.2478 -20.1510 6.8155
0.00 0.00 0.00 3.8668 -76.5829 3.4442 0.0000 0.0000 0.0000 -13.8349 -0.0417 -23.8658 4.7413 13.0864 39.6928 -0.4464 -12.5902 -0.2199 2.2998 -9.4644 -27.2591 0.0000 0.0000 0.0000 16.4175 1.8735 -25.4393 -6.5945 -14.9807 47.3235 -0.2620 3.7408 -9.1045 -1.8860 8.6245 -24.6276 -3.4625 0.0178 3.8976 2.4755 -0.0868 -0.3851 4.5132 0.0190 -2.5766 -3.5927 7.2578 -27.4074 3.1313 10.5120 15.6161 3.2114 5.0555 8.9343 0.0000 -0.0000 0.0000 -66.9047 -3.1344 -18.7498 13.1963 -21.5742 -2.5250 -0.0000 -0.0000 5.7067 4.2077 41.5730 2.7949 -7.1250 0.0000 -0.0000 -43.3718 66.7181 -24.5703 0.0000 -0.0000 0.0000 72.4364 0.8654 -44.1751 -12.9088 21.1534 -2.4203 0.0000 0.0000 0.5415 -10.5557 7.4147 -1.3776 7.1250 -0.0000 -0.0000 11.8268 -22.4833 6.5417
0.00 0.00 0.00 8.2692 -81.7609 -1.6077 0.0000 0.0000 0.0000 -8.4762 2.3304 -14.1403 1.9167 8.6904 24.8314 -0.1999 -8.1895 5.3041 1.7487 -8.3218 -23.6959 0.0000 0.0000 0.0000 10.4219 -2.2980 -21.1359 -3.8627 -11.9754 35.6450 0.1061 -8.1040 -9.0210 -0.8111 5.7472 -16.0526 -2.4582 0.7790 0.9463 2.0917 1.0172 -1.6103 3.5029 0.5642 -2.2670 -3.5837 7.1346 -26.3830 3.8331 10.2641 19.9960 3.5736 4.9119 10.2929 -0.0000 0.0000 0.0000 -33.7813 4.9199 -31.3133 13.4203 -21.8999 -2.6080 -0.0000 -0.0000 5.1173 -5.6702 48.4279 -4.2481 -7.1250 0.0000 -0.0000 -65.0876 67.6545 -41.7844 -0.0000 0.0000 0.0000 39.0120 -4.7445 -54.2532 -12.9329 21.1888 -2.4290 0.0000 -0.0000 -6.5016 -10.5389 -2.2551 0.4194 7.1250 -0.0000 -0.0000 12.8657 -32.0926 4.1559
0.00 0.00 0.00 7.9670 -82.8843 -4.0118 0.0000 0.0000 0.0000 -0.1720 1.9834 -6.7640 1.5096 7.7598 21.9867 0.3481 -2.3328 12.2466 0.5785 -4.8704 -13.5392 0.0000 0.0000 0.0000 2.6210 -5.3257 -14.4239 -2.9725 -10.6504 31.1098 0.7067 -15.3494 -0.9414 -0.2624 3.2953 -9.1021 -0.4351 1.2290 -0.1581 1.8051 1.6417 -2.8850 2.0597 0.8402 -2.9391 -2.3652 6.6980 -20.5427 4.5000 8.8800 23.3200 3.2966 4.3771 10.5384 0.0000 0.0000 0.0000 2.6313 -0.2166 -40.2152 17.9524 -28.0962 -4.5268 -0.0000 -0.0000 0.1164 9.0919 47.8607 6.7673 -7.1250 0.0000 -0.0000 -52.1422 72.3842 -36.5565 0.0000 0.0000 0.0000 0.9231 -3.5986 -46.8541 -20.6350 31.3998 -5.8586 0.0000 -0.0000 -19.6378 -20.4529 6.0135 -2.2375 7.1250 -0.0000 -0.0000 4.6377 -23.5690 2.4040
0.00 0.00 0.00 11.7071 -81.5929 -10.2091 0.0000 0.0000 0.0000 5.6353 -8.2416 -0.6556 1.3026 7.2303 20.3995 -0.4993 -13.1480 9.5343 2.9305 -10.5817 -30.8818 0.0000 0.0000 0.0000 -2.3351 6.9092 -3.5742 -3.4301 -11.3607 33.5063 -0.1905 -1.2667 -8.8076 -4.2886 12.5349 -37.6513 0.1824 2.6605 0.2692 -0.3869 3.5017 -3.8757 -0.6324 1.7119 -4.1044 2.1454 4.8613 -18.8184 5.1112 4.4720 26.3731 2.2064 2.8047 11.6851 0.0000 0.0000 0.0000 36.1155 -19.8554 -52.9828 43.1471 -49.8278 -20.8131 -0.0000 0.0000 -9.9237 7.3633 43.0631 5.0425 -7.1250 0.0000 -0.0000 -42.9311 68.7479 -26.1653 0.0000 0.0000 0.0000 -30.1935 5.7875 -45.7468 -42.3485 49.4013 -20.2048 0.0000 -0.0000 -26.0135 -17.1067 7.0772 -2.1716 7.1250 -0.0000 -0.0000 7.0809 -22.5952 3.8454
0.00 0.00 0.00 9.0234 -81.9009 -8.7290 0.0000 0.0000 0.0000 7.9647 -7.0956 -4.2216 2.8904 10.5154 30.6624 -0.4456 -18.5971 -8.6418 4.0003 -12.1608 -36.3033 0.0000 0.0000 0.0000 -2.8454 7.6190 -5.8804 -5.3752 -13.7942 42.4193 -1.8145 2.0280 -24.9215 -4.0082 12.1713 -36.3408 0.5735 2.1943 3.5139 0.2614 2.9356 -5.4153 -0.3379 1.3904 -7.6157 1.7389 5.0398 -9.2826 3.9252 5.5529 21.7939 1.5397 3.0467 8.2178 -0.0000 -0.0000 0.0000 39.6500 -21.1944 -50.3992 57.2885 -55.5430 -32.0949 -0.0000 0.0000 -5.4514 11.3335 41.5556 7.5732 -7.1250 0.0000 -0.0000 -36.1525 68.9106 -21.7355 -0.0000 -0.0000 0.0000 -35.8064 11.5654 -45.1510 -56.4204 55.2781 -31.3803 0.0000 -0.0000 -25.3355 -18.5124 8.9471 -2.9810 7.1250 -0.0000 -0.0000 6.0346 -20.5770 3.5481
0.00 0.00 0.00 8.6972 -83.0474 -11.3051 0.0000 0.0000 0.0000 9.6388 -4.8644 -6.6448 4.7095 13.0489 39.5519 0.3415 -22.1458 -18.0465 2.6313 -10.0727 -29.2126 0.0000 0.0000 0.0000 -3.9493 6.8347 -9.0541 -7.7638 -15.9427 51.7072 -3.3307 4.2050 -33.6308 -3.4177 11.3423 -33.4431 0.1993 2.0494 9.1477 1.2498 2.8699 -5.2218 0.7098 1.4012 -10.8163 0.3327 5.4897 -7.8199 4.6170 6.2802 21.7043 2.0081 3.3294 7.8290 -0.0000 -0.0000 0.0000 40.7798 -21.5290 -49.5872 80.1233 -59.6282 -51.4572 -0.0000 0.0000 -4.4050 16.5382 38.7817 10.5360 -7.1250 0.0000 -0.0000 -26.0054 68.2796 -14.9159 -0.0000 -0.0000 0.0000 -40.4173 15.4525 -46.5914 -77.3495 59.3866 -49.0669 0.0000 -0.0000 -21.5563 -22.8621 16.4638 -6.8143 7.1250 -0.0000 -0.0000 3.2753 -12.2197 2.5121
0.00 0.00 0.00 22.1129 -83.8146 -26.6092 0.0000 0.0000 0.0000 9.4375 -2.5371 -7.6604 5.8659 14.2971 44.4410 1.6586 -22.5610 -26.1961 3.1405 -10.9191 -32.0074 0.0000 0.0000 0.0000 -7.1700 6.3468 -12.4095 -9.9441 -17.3783 59.3012 -4.0980 6.6933 -37.1131 -3.6009 11.6095 -34.3641 -1.3260 2.3509 11.8666 1.3210 3.0691 -3.9682 1.5251 1.6080 -11.1349 1.1190 5.5877 -6.7057 3.1242 6.7149 19.0460 1.3296 3.4790 6.8396 0.0000 -0.0000 0.0000 41.1690 -20.7881 -49.5971 101.5188 -59.4927 -69.9586 -0.0000 0.0000 -3.7869 22.6449 33.0334 12.8121 -7.1250 0.0000 -0.0000 -12.4365 64.7379 -5.9834 0.0000 -0.0000 0.0000 -42.8671 15.3043 -47.6806 -89.6732 59.9996 -59.7170 0.0000 -0.0000 -13.8091 -40.6815 31.4244 -24.1399 7.1250 -0.0000 -0.0000 -4.9899 8.7470 -5.7108
